Patient4_TMGait_0pt4_01_left_23_EMG.mot
version=1
nRows=13
nColumns=33
inDegrees=no
endheader
time	1LAddLong	2LGlutMax	3LGlutMed	4LIliopsoas	5LSemiMemb	6LBicFemLong	7LRecFem	8LVastMed	9LVastLat	10LGasMed	11LTibAnt	12lTibPost	13LPeroneusLong	14LSol	15LExtDigLong	16LFlexDigLong	17RAddLong	18RGlutMax	19RGlutMed	20RIliopsoas	21RSemiMemb	22RBicFemLong	23RRecFem	24RVastMed	25RVastLat	26RGasMed	27RTibAnt	28RTibPost	29RPeroneusLong	30RSol	31RExtDigLong	32RFlexDigLong
27.66	-0.014038	0.54962	-0.042572	-0.005341	0.004272	0.01236	0.61523	0.014648	-0.22766	0.027618	-0.16266	0.067444	-0.04364	0.099792	-0.48843	0.029144	-0.018005	-0.40359	-0.0737	0.12833	-0.029755	-0.028992	0.098267	-0.058441	-0.13886	-0.004578	0.06485	-0.00412	0.26306	0.005951	0.001678	-0.005035
27.661	-0.009918	0.57114	-0.034637	-0.001526	-0.007477	0.014191	0.61783	0.017853	-0.23743	-0.013885	-0.16586	0.062866	-0.00351	0.070801	-0.37766	0.02594	-0.006256	-0.31693	0.27679	0.13382	-0.047913	-0.085602	0.13809	-0.24109	-0.09491	-0.006104	0.32562	-0.003357	-0.7428	-0.009003	-0.001526	-0.006714
27.662	-0.007477	0.54092	-0.04837	-0.020752	-0.00824	0.016174	0.62759	0.00885	-0.24323	-0.03006	-0.15274	0.067291	0.030823	0.013123	-0.12695	0.028076	0.00885	-0.1973	0.31876	-0.047302	-0.035553	-0.11841	-0.028076	-0.2034	-0.059052	-0.006409	0.24857	-0.00473	-0.22659	0.047913	-0.002747	-0.004883
27.663	-0.007782	0.57419	-0.03479	-0.021057	-0.005188	0.037079	0.62698	0.018158	-0.24872	-0.014954	-0.042114	0.062561	-0.005798	-0.097351	-0.27756	0.025177	-0.020447	-0.17044	0.6221	-0.012665	0.004425	-0.095978	-0.12177	-0.16983	0.049896	0.000763	0.072327	-0.004883	0.091705	0.049133	-0.001373	0.006256
27.664	-0.016479	0.54047	-0.037842	-0.032196	-0.001678	0.032043	0.63034	0.00885	-0.25986	-0.008545	0.007172	0.063019	-0.071869	-0.20203	-0.22858	0.020447	-0.014954	-0.082245	0.65018	0.30029	-0.015869	-0.08667	0.14175	-0.11673	0.077209	0.011444	-0.039215	-0.003204	0.5014	-0.12405	-0.002136	-0.001678
27.665	-0.009155	0.52811	-0.046539	0.013885	-0.00885	0.038147	0.6337	0.02533	-0.25955	-0.029602	0.18723	0.065765	-0.08316	-0.16724	0.099182	0.017853	0.006104	-0.015564	0.78018	0.27176	-0.023651	-0.081177	0.050507	-0.044098	0.062561	0.00946	0.011902	-0.002441	-0.94757	-0.18784	-0.003204	0.00412
27.666	0.003357	0.48904	-0.011597	0.020294	-0.011902	0.028992	0.68771	0.016937	-0.27924	-0.065308	0.27344	0.061646	-0.059357	-0.022125	0.24109	0.037537	0.005798	-0.069885	1.1574	0.063782	-0.044708	-0.086517	0.041962	0.088806	-0.019836	0.00473	0.11078	-0.004272	-0.34836	-0.07782	-0.007324	-0.010376
27.667	0.026245	0.45639	0.016479	0.024109	-0.007782	0.018768	0.62134	0.025177	-0.28061	-0.000916	0.21973	0.063171	-0.058746	0.071106	0.35141	0.036163	0.002441	-0.058899	0.32516	-0.016937	-0.032806	-0.020142	-0.17624	0.25879	-0.051422	-0.012207	0.17059	-0.009155	1.1861	0.10269	-0.000916	-0.011444
27.668	0.093384	0.44128	-0.076447	0.008392	-0.005798	0.026093	0.59372	0.014954	-0.29785	0.026398	-0.017395	0.054932	-0.09201	-0.003357	0.39261	0.036926	-0.012512	-0.00946	-0.33981	0.00946	-0.005341	0.19821	-0.24353	0.17044	0.029755	-0.009155	0.14511	-0.007629	0.74204	0.20889	-0.000916	-0.010834
27.669	-0.018158	0.47501	-0.088196	-0.029449	-0.002747	0.029602	0.58044	0.015106	-0.31403	-0.024567	0.062103	0.051727	-0.049591	-0.074615	0.29159	0.038605	0.002899	0.20981	-0.31632	-0.054321	0.006104	0.27664	0.014496	-0.041199	-0.035553	-0.005798	0.3096	-0.003662	-0.35019	-0.095062	-0.001984	-0.003204
27.67	0.010529	0.50186	-0.082703	-0.020905	-0.007782	0.019073	0.57648	0.021057	-0.31174	-0.03952	-0.071564	0.045471	0.018005	-0.099792	0.1474	0.024872	-0.003967	0.22751	0.06546	-0.071259	-0.025482	-0.19104	-0.033722	-0.022583	-0.072937	-0.003662	0.10895	-0.002289	-0.69763	-0.16037	0	-0.002747
27.671	-0.000916	0.44983	-0.076447	-0.013123	-0.004578	-0.005798	0.57037	0.018921	-0.28992	-0.056763	-0.25436	0.035858	0.093842	-0.087128	0.16876	0.01297	0.016937	0.041809	0.45776	-0.16937	-0.031128	-0.45929	-0.10788	0.022736	-0.073853	-0.00824	-0.011444	-0.001984	0.83572	-0.093842	0.003967	-0.010986
27.672	0.00885	0.41321	-0.001984	-0.018463	-0.00824	-0.014343	0.56564	0.025787	-0.28854	-0.022583	-0.14923	0.043335	0.066071	-0.075531	0.058746	0.024567	0.023193	0.072327	0.55527	-0.22659	-0.04303	-0.48614	-0.15884	-0.16174	-0.075531	-0.00946	0.14206	-0.004425	0.75867	-0.002136	0.001831	-0.005188
